# xmcd
#
# Track frame offsets: 
#        150
#        38360
#        59135
#        76075
#        89765
#        104415
#        124140
#        135295
#        150690
#        178285
#        198720
#        230635
#
# Disc length: 3359 seconds
#
# Revision: 0
# Processed by: cddbd v1.4PL0 Copyright (c) Steve Scherf et al.
# Submitted via: ExactAudioCopy v0.90b4
#
DISCID=a50d1d0c
DTITLE=Van Morrison - Oxnard 1974
DYEAR=1974
DGENRE=Celtic
TTITLE0=Ballerina
TTITLE1=Astral Weeks
TTITLE2=Brown Eyed Girl
TTITLE3=Ain't Nothin' You Can Do
TTITLE4=These Dreams Of You
TTITLE5=I Believe To My Soul
TTITLE6=My Little Suede Shoes
TTITLE7=Heathrow Shuffle
TTITLE8=Moondance
TTITLE9=Wild Night
TTITLE10=Caravan
TTITLE11=Gloria
EXTD=
EXTT0=
EXTT1=
EXTT2=
EXTT3=
EXTT4=
EXTT5=
EXTT6=
EXTT7=
EXTT8=
EXTT9=
EXTT10=
EXTT11=
PLAYORDER=
